<?xml version="1.0" encoding="utf-8"?>
<!-- Generator: Adobe Illustrator 16.0.0, SVG Export Plug-In . SVG Version: 6.00 Build 0)  -->
<!DOCTYPE svg PUBLIC "-//W3C//DTD SVG 1.0//EN" "http://www.w3.org/TR/2001/REC-SVG-20010904/DTD/svg10.dtd">
<svg version="1.0" id="Layer_1" xmlns="http://www.w3.org/2000/svg" xmlns:xlink="http://www.w3.org/1999/xlink" x="0px" y="0px"
	 width="708.66px" height="708.66px" viewBox="0 0 708.66 708.66" enable-background="new 0 0 708.66 708.66" xml:space="preserve">
<g>
	<path fill="none" stroke="#373431" stroke-width="12" stroke-linecap="round" stroke-linejoin="round" stroke-miterlimit="10" d="
		M491.231,543.587c0,22.656,18.385,41.063,41.089,41.063c22.656,0,41.064-18.407,41.064-41.063
		c0-22.681-18.408-41.064-41.064-41.064C509.616,502.522,491.231,520.906,491.231,543.587z"/>
	<path fill="none" stroke="#373431" stroke-width="12" stroke-linecap="round" stroke-linejoin="round" stroke-miterlimit="10" d="
		M514.596,543.587c0,9.766,7.935,17.7,17.725,17.7c9.766,0,17.7-7.935,17.7-17.7c0-9.79-7.935-17.725-17.7-17.725
		C522.53,525.862,514.596,533.797,514.596,543.587z"/>
	<path fill="none" stroke="#373431" stroke-width="12" stroke-linecap="round" stroke-linejoin="round" stroke-miterlimit="10" d="
		M135.302,543.587c0,22.656,18.383,41.063,41.064,41.063s41.064-18.407,41.064-41.063c0-22.681-18.384-41.064-41.064-41.064
		S135.302,520.906,135.302,543.587z"/>
	<path fill="none" stroke="#373431" stroke-width="12" stroke-linecap="round" stroke-linejoin="round" stroke-miterlimit="10" d="
		M158.642,543.587c0,9.766,7.935,17.7,17.725,17.7s17.725-7.935,17.725-17.7c0-9.79-7.935-17.725-17.725-17.725
		S158.642,533.797,158.642,543.587z"/>
	<path fill="none" stroke="#373431" stroke-width="12" stroke-linecap="round" stroke-linejoin="round" stroke-miterlimit="10" d="
		M655.513,502.498v27.393c0,7.568-6.128,13.696-13.672,13.696l0,0h-68.456c-0.024-22.681-18.408-41.064-41.064-41.064
		c-22.704,0-41.063,18.384-41.089,41.064H217.431c0-22.681-18.384-41.064-41.064-41.064s-41.064,18.384-41.064,41.064H66.87
		c-7.593,0-13.721-6.128-13.721-13.696l0,0v-75.293c0-7.556,6.128-13.684,13.696-13.684c0,0,69.262-8.35,75.707-11.022
		c6.689-2.771,12.72-6.824,17.773-11.878l43.407-38.708h205.37l57.104,52.404c9.912,9.9,28.516,13.953,38.721,16.053l141.209,26.366
		c5.811,8.008,9.351,17.749,9.351,28.394L655.513,502.498z"/>
	<path fill="none" stroke="#373431" stroke-width="12" stroke-linecap="round" stroke-linejoin="round" stroke-miterlimit="10" d="
		M398.215,406.698c-2.661-2.661-7.91-4.858-11.669-4.858H237.962c-3.76,0-9.033,2.197-11.67,4.858l-49.926,49.927h271.727
		L398.215,406.698z"/>
	<path fill="none" stroke="#373431" stroke-width="12" stroke-linecap="round" stroke-linejoin="round" stroke-miterlimit="10" d="
		M176.366,502.498v-45.873V502.498z"/>
	<path fill="none" stroke="#373431" stroke-width="12" stroke-linecap="round" stroke-linejoin="round" stroke-miterlimit="10" d="
		M448.093,543.587v-86.962V543.587z"/>
	<path fill="none" stroke="#373431" stroke-width="12" stroke-linecap="round" stroke-linejoin="round" stroke-miterlimit="10" d="
		M312.229,543.587V401.84V543.587z"/>
	<path fill="none" stroke="#373431" stroke-width="12" stroke-linecap="round" stroke-linejoin="round" stroke-miterlimit="10" d="
		M53.149,508.138H155.98H53.149z"/>
	<path fill="none" stroke="#373431" stroke-width="12" stroke-linecap="round" stroke-linejoin="round" stroke-miterlimit="10" d="
		M655.513,508.138H552.682H655.513z"/>
	<path fill="none" stroke="#373431" stroke-width="12" stroke-linecap="round" stroke-linejoin="round" stroke-miterlimit="10" d="
		M487.204,360.238l-40.308,53.748l19.312,17.724c9.912,9.9,28.516,13.953,38.721,16.053l96.922,18.091l-17.211-22.925h53.148
		l-62.012-82.69h44.313l-53.149-70.861h35.425l-44.287-59.045h26.563l-53.149-70.874l-53.149,70.874h26.588l-44.287,59.045h35.424
		l-53.148,70.861H487.204z"/>
	<path fill="none" stroke="#373431" stroke-width="12" stroke-linecap="round" stroke-linejoin="round" stroke-miterlimit="10" d="
		M79.296,439.376c20.215-2.539,58.545-7.531,63.256-9.484c6.689-2.771,12.72-6.824,17.773-11.878l43.407-38.708h34.693
		l-16.969-22.606h44.287l-53.125-70.862h35.4l-70.849-94.494l-70.874,94.494h35.424l-53.149,70.862h44.312l-62.011,82.677H79.296z"
		/>
	
		<polygon fill="none" stroke="#373431" stroke-width="12" stroke-linecap="round" stroke-linejoin="round" stroke-miterlimit="10" points="
		354.343,324.814 301.194,253.94 336.618,253.94 292.332,194.896 318.895,194.896 265.745,124.034 212.597,194.896 239.183,194.896 
		209.495,234.458 248.021,285.837 212.62,285.837 265.745,356.699 221.458,356.699 238.427,379.306 350.901,379.306 
		310.032,324.814 	"/>
</g>
</svg>
