<?xml version="1.0" encoding="utf-8"?>
<!-- Generator: Adobe Illustrator 16.0.0, SVG Export Plug-In . SVG Version: 6.00 Build 0)  -->
<!DOCTYPE svg PUBLIC "-//W3C//DTD SVG 1.0//EN" "http://www.w3.org/TR/2001/REC-SVG-20010904/DTD/svg10.dtd">
<svg version="1.0" id="Layer_1" xmlns="http://www.w3.org/2000/svg" xmlns:xlink="http://www.w3.org/1999/xlink" x="0px" y="0px"
	 width="708.66px" height="708.66px" viewBox="0 0 708.66 708.66" enable-background="new 0 0 708.66 708.66" xml:space="preserve">
<g>
	<path fill="none" stroke="#373431" stroke-width="12" stroke-linecap="round" stroke-linejoin="round" stroke-miterlimit="10" d="
		M477.327,368.375c-82.665,27.271-168.736,25.635-246.653-0.073c-23.498,24.597-49.45,46.643-77.514,65.6
		c124.376,51.403,268.162,55.42,402.303-0.146v-0.024C526.558,414.419,500.533,392.435,477.327,368.375z"/>
	<path fill="none" stroke="#373431" stroke-width="12" stroke-linecap="round" stroke-linejoin="round" stroke-miterlimit="10" d="
		M446.517,309.159c-61.986,20.458-126.548,19.213-184.971-0.062c-17.626,18.445-37.108,34.973-58.142,49.194
		c93.273,38.574,201.122,41.553,301.743-0.11v-0.012C483.431,343.692,463.924,327.188,446.517,309.159z"/>
	<path fill="none" stroke="#373431" stroke-width="12" stroke-linecap="round" stroke-linejoin="round" stroke-miterlimit="10" d="
		M411.386,251.347c-38.477,11.719-78.258,11.06-114.696-0.049c-16.15,19.348-34.875,36.267-55.603,50.28
		c69.946,28.943,150.841,31.165,226.279-0.073v-0.012C445.882,287.138,427.206,270.17,411.386,251.347z"/>
	<path fill="none" stroke="#373431" stroke-width="12" stroke-linecap="round" stroke-linejoin="round" stroke-miterlimit="10" d="
		M329.184,473.269v93.652h50.268v-93.652C362.631,474.074,345.859,474.063,329.184,473.269z"/>
	<path fill="none" stroke="#373431" stroke-width="12" stroke-linecap="round" stroke-linejoin="round" stroke-miterlimit="10" d="
		M357.004,143.694l-2.686-1.965l-3.784,2.747c-11.536,42.285-37.573,77.294-71.777,100.415
		c46.643,19.274,100.573,20.776,150.866-0.062l0,0C392.489,220.012,367.855,183.647,357.004,143.694z"/>
	<path fill="none" stroke="#373431" stroke-width="12" stroke-linecap="round" stroke-linejoin="round" stroke-miterlimit="10" d="
		M430.355,481.057v85.864h46.068v-85.864C460.994,481.813,445.638,481.813,430.355,481.057z"/>
	<path fill="none" stroke="#373431" stroke-width="12" stroke-linecap="round" stroke-linejoin="round" stroke-miterlimit="10" d="
		M407.553,252.348c1.27-0.366,2.563-0.623,3.833-1.001c10.205,12.134,21.704,23.389,34.276,33.776
		c25.488,1.074,51.623-3.039,76.745-13.464c-34.009-22.741-56.604-56.091-66.564-92.699l-2.466-1.782l-3.467,2.515
		c-5.957,21.813-16.234,41.418-29.589,58.275c3.027,2.344,6.055,4.688,9.302,6.86C422.323,247.844,414.95,250.26,407.553,252.348
		L407.553,252.348z"/>
	<path fill="none" stroke="#373431" stroke-width="12" stroke-linecap="round" stroke-linejoin="round" stroke-miterlimit="10" d="
		M505.708,277.641c-19.885,6.055-40.1,8.398-59.973,7.568c6.897,5.676,14.014,11.193,21.631,16.284v0.012
		c-6.982,2.881-14.014,5.384-21.069,7.715c0.073-0.036,0.146-0.049,0.22-0.061c11.45,11.865,23.901,22.973,37.207,33.361
		c24.621-2.783,49.255-8.96,73.303-18.896V323.6C537.349,310.465,520.21,294.901,505.708,277.641z"/>
	<path fill="none" stroke="#373431" stroke-width="12" stroke-linecap="round" stroke-linejoin="round" stroke-miterlimit="10" d="
		M537.935,330.619c-17.993,5.945-36.229,9.68-54.455,11.731c6.995,5.469,14.147,10.815,21.667,15.82v0.012
		c-9.203,3.809-18.493,7.129-27.795,10.205c10.168,10.535,20.984,20.605,32.238,30.311c27.588-4.383,55.103-11.963,82.056-23.12
		v-0.013C571.772,362.283,553.877,347.171,537.935,330.619z"/>
	<path fill="none" stroke="#373431" stroke-width="12" stroke-linecap="round" stroke-linejoin="round" stroke-miterlimit="10" d="
		M566.157,384.903c-18.75,6.188-37.646,10.718-56.616,13.745c14.429,12.438,29.688,24.218,45.923,35.082v0.024
		c-61.815,25.61-125.694,38.415-188.805,39.893c88.28,16.198,182.018,8.117,271.128-28.809v-0.012
		C611.273,427.127,587.422,406.961,566.157,384.903z"/>
	<path fill="none" stroke="#373431" stroke-width="12" stroke-linecap="round" stroke-linejoin="round" stroke-miterlimit="10" d="
		M278.282,481.057v85.864H232.2v-85.864C247.63,481.813,262.999,481.813,278.282,481.057z"/>
	<path fill="none" stroke="#373431" stroke-width="12" stroke-linecap="round" stroke-linejoin="round" stroke-miterlimit="10" d="
		M301.072,252.348c-1.27-0.366-2.551-0.623-3.821-1.001c-10.205,12.134-21.716,23.389-34.277,33.776
		c-25.5,1.074-51.611-3.039-76.757-13.464c34.033-22.741,56.604-56.091,66.577-92.699l2.454-1.782l3.479,2.515
		c5.944,21.813,16.235,41.418,29.589,58.275c-3.04,2.344-6.067,4.688-9.301,6.86C286.301,247.844,293.674,250.26,301.072,252.348
		L301.072,252.348z"/>
	<path fill="none" stroke="#373431" stroke-width="12" stroke-linecap="round" stroke-linejoin="round" stroke-miterlimit="10" d="
		M202.928,277.641c19.873,6.055,40.1,8.398,59.96,7.568c-6.896,5.676-14.013,11.193-21.618,16.284v0.012
		c6.97,2.881,14.014,5.384,21.069,7.715c-0.086-0.036-0.159-0.049-0.232-0.061c-11.438,11.865-23.901,22.973-37.194,33.361
		c-24.621-2.783-49.255-8.96-73.29-18.896V323.6C171.3,310.465,188.426,294.901,202.928,277.641z"/>
	<path fill="none" stroke="#373431" stroke-width="12" stroke-linecap="round" stroke-linejoin="round" stroke-miterlimit="10" d="
		M170.714,330.619c17.993,5.945,36.218,9.68,54.431,11.731c-6.982,5.469-14.136,10.815-21.644,15.82v0.012
		c9.204,3.809,18.481,7.129,27.783,10.205c-10.168,10.535-20.972,20.605-32.238,30.311c-27.588-4.383-55.103-11.963-82.055-23.12
		v-0.013C136.876,362.283,154.772,347.171,170.714,330.619z"/>
	<path fill="none" stroke="#373431" stroke-width="12" stroke-linecap="round" stroke-linejoin="round" stroke-miterlimit="10" d="
		M142.479,384.903c18.738,6.188,37.659,10.718,56.628,13.745c-14.44,12.438-29.687,24.218-45.935,35.082v0.024
		c61.828,25.61,125.695,38.415,188.793,39.893c-88.269,16.198-182.006,8.117-271.104-28.809v-0.012
		C97.363,427.127,121.215,406.961,142.479,384.903z"/>
</g>
</svg>
