<?xml version="1.0" encoding="utf-8"?>
<!-- Generator: Adobe Illustrator 16.0.0, SVG Export Plug-In . SVG Version: 6.00 Build 0)  -->
<!DOCTYPE svg PUBLIC "-//W3C//DTD SVG 1.0//EN" "http://www.w3.org/TR/2001/REC-SVG-20010904/DTD/svg10.dtd">
<svg version="1.0" id="Layer_1" xmlns="http://www.w3.org/2000/svg" xmlns:xlink="http://www.w3.org/1999/xlink" x="0px" y="0px"
	 width="708.66px" height="708.66px" viewBox="0 0 708.66 708.66" enable-background="new 0 0 708.66 708.66" xml:space="preserve">
<g>
	<path fill="none" stroke="#373431" stroke-width="12" stroke-linecap="round" stroke-linejoin="round" stroke-miterlimit="10" d="
		M336.618,254.124l8.863-112.377h17.699l8.863,183.226l88.598-79.735v26.599l-67.847,67.834
		c-12.817,12.817-20.751,30.529-20.751,50.085v76.929l124.021-115.148v26.587L392.795,481.381
		c-12.817,12.816-20.751,30.529-20.751,50.097v106.311h-35.426V496.053c0-19.567-7.934-37.279-20.751-50.097L212.597,342.697
		v-26.563l124.021,115.148V318.906c0-19.568-7.934-37.28-20.751-50.11l-67.847-67.846v-26.538L336.618,254.124z"/>
	<path fill="none" stroke="#373431" stroke-width="12" stroke-linecap="round" stroke-linejoin="round" stroke-miterlimit="10" d="
		M354.343,70.873c-136.986,0-248.044,111.059-248.044,248.033c0,131.005,101.634,238.011,230.32,247.129v-69.982
		c0-19.567-7.934-37.279-20.751-50.097L212.597,342.697v-26.563l124.021,115.148V318.906c0-19.568-7.934-37.28-20.751-50.11
		l-67.847-67.846v-26.538l88.598,79.712l8.863-112.377h17.699l8.863,183.226l88.598-79.735v26.599l-67.847,67.834
		c-12.817,12.817-20.751,30.529-20.751,50.085v76.929l124.021-115.148v26.587L392.795,481.381
		c-12.817,12.816-20.751,30.529-20.751,50.097v34.558c128.686-9.118,230.32-116.124,230.32-247.129
		C602.364,181.932,491.329,70.873,354.343,70.873z"/>
</g>
</svg>
