<?xml version="1.0" encoding="utf-8"?>
<!-- Generator: Adobe Illustrator 16.0.0, SVG Export Plug-In . SVG Version: 6.00 Build 0)  -->
<!DOCTYPE svg PUBLIC "-//W3C//DTD SVG 1.0//EN" "http://www.w3.org/TR/2001/REC-SVG-20010904/DTD/svg10.dtd">
<svg version="1.0" id="Layer_1" xmlns="http://www.w3.org/2000/svg" xmlns:xlink="http://www.w3.org/1999/xlink" x="0px" y="0px"
	 width="708.66px" height="708.66px" viewBox="0 0 708.66 708.66" enable-background="new 0 0 708.66 708.66" xml:space="preserve">
<g>
	<path fill="none" stroke="#373431" stroke-width="12" stroke-linecap="round" stroke-linejoin="round" stroke-miterlimit="10" d="
		M193.139,314.365c28.979-29.126,69.018-47.119,113.207-47.119l0,0l0.024-0.024l0,0c44.164,0,84.203-17.993,113.134-47.094v-0.024
		l0,0c31.249-31.42,46.874-72.583,46.899-113.744l-0.049-0.073c110.473,111.107,110.473,291.257,0,402.34h-0.025
		c-66.259,66.65-173.729,66.65-240.012,0l-33.179-33.349C148.949,430.844,148.949,358.799,193.139,314.365z"/>
	<path fill="none" stroke="#373431" stroke-width="12" stroke-linecap="round" stroke-linejoin="round" stroke-miterlimit="10" d="
		M159.447,602.352c0-44.458,17.896-84.692,46.874-113.794v-0.024l0,0c113.135-47.143,196.63-135.912,240.111-241.331
		c-43.481,105.419-126.977,194.188-240.111,241.331l0,0v0.024C177.343,517.659,159.447,557.894,159.447,602.352z"/>
	<path fill="none" stroke="#373431" stroke-width="12" stroke-linecap="round" stroke-linejoin="round" stroke-miterlimit="10" d="
		M279.661,449.496c11.304-38.843,10.083-81.616-6.494-121.898C289.744,367.88,290.965,410.653,279.661,449.496z"/>
	<path fill="none" stroke="#373431" stroke-width="12" stroke-linecap="round" stroke-linejoin="round" stroke-miterlimit="10" d="
		M473.19,387.948c-41.235,17.163-85.107,18.018-124.609,5.566C388.083,405.966,431.955,405.111,473.19,387.948z"/>
</g>
</svg>
