<?xml version="1.0" encoding="utf-8"?>
<!-- Generator: Adobe Illustrator 22.1.0, SVG Export Plug-In . SVG Version: 6.00 Build 0)  -->
<svg version="1.1" id="Layer_1" xmlns="http://www.w3.org/2000/svg" xmlns:xlink="http://www.w3.org/1999/xlink" x="0px" y="0px"
	 viewBox="0 0 708.7 708.7" style="enable-background:new 0 0 708.7 708.7;" xml:space="preserve">
<style type="text/css">
	.st0{fill:none;stroke:#FFFFFF;stroke-width:12;stroke-linecap:round;stroke-linejoin:round;stroke-miterlimit:10;}
</style>
<line class="st0" x1="447.6" y1="471.6" x2="246.7" y2="471.6"/>
<path class="st0" d="M124.5,471.6H61.9c-12.1,0-21.9-9.9-21.9-21.9l47.5-201c3.1-15,13.5-21.9,25.6-21.9h138.9l12.8-45.7h381.4
	c12.1,0,21.9,9.9,21.9,21.9l-28.7,246.6c0,12.1-9.9,21.9-21.9,21.9h-48.9"/>
<circle class="st0" cx="187" cy="470.1" r="57.5"/>
<circle class="st0" cx="508.5" cy="470.1" r="57.5"/>
<polyline class="st0" points="72.9,339.1 177.9,339.1 201.7,226.7 "/>
<line class="st0" x1="362.2" y1="266.9" x2="544.9" y2="266.9"/>
<line class="st0" x1="362.2" y1="307.1" x2="544.9" y2="307.1"/>
<line class="st0" x1="362.2" y1="347.3" x2="544.9" y2="347.3"/>
</svg>
