<?xml version="1.0" encoding="utf-8"?>
<!-- Generator: Adobe Illustrator 16.0.0, SVG Export Plug-In . SVG Version: 6.00 Build 0)  -->
<!DOCTYPE svg PUBLIC "-//W3C//DTD SVG 1.0//EN" "http://www.w3.org/TR/2001/REC-SVG-20010904/DTD/svg10.dtd">
<svg version="1.0" id="Layer_1" xmlns="http://www.w3.org/2000/svg" xmlns:xlink="http://www.w3.org/1999/xlink" x="0px" y="0px"
	 width="708.66px" height="708.66px" viewBox="0 0 708.66 708.66" enable-background="new 0 0 708.66 708.66" xml:space="preserve">
<g>
	<path fill="none" stroke="#373431" stroke-width="12" stroke-linecap="round" stroke-linejoin="round" stroke-miterlimit="10" d="
		M372.031,254.118l-8.851-112.377h-17.712l-8.862,183.226l-88.586-79.724v26.599l67.834,67.834
		c12.83,12.817,20.752,30.53,20.752,50.073v76.928l-124.01-115.147v26.599l103.258,103.259
		c12.83,12.817,20.752,30.529,20.752,50.085v106.322h35.425V496.047c0-19.556,7.935-37.268,20.752-50.097l103.271-103.247v-26.562
		L372.031,431.289V318.912c0-19.58,7.935-37.28,20.752-50.109l67.846-67.858v-26.525L372.031,254.118z"/>
	<path fill="none" stroke="#373431" stroke-width="12" stroke-linecap="round" stroke-linejoin="round" stroke-miterlimit="10" d="
		M531.026,257.133c0.158-3.027,0.464-6.018,0.464-9.094c0-97.839-79.321-177.16-177.159-177.16
		c-97.839,0-177.159,79.321-177.159,177.16c0,3.076,0.305,6.079,0.451,9.106c-62.121,21.777-106.749,80.786-106.749,150.34
		c0,88.049,71.398,159.436,159.459,159.436c22.058,0,63.036,0,106.273,0v-35.449c0-19.556-7.922-37.268-20.752-50.085
		L212.596,378.128v-26.599l124.01,115.147v-76.928c0-19.543-7.922-37.256-20.752-50.073l-67.834-67.834v-26.599l88.586,79.724
		l8.862-183.226h17.712l8.851,112.377l88.598-79.699v26.525l-67.846,67.858c-12.817,12.829-20.752,30.529-20.752,50.109v112.377
		l124.022-115.148v26.562L392.783,445.95c-12.817,12.829-20.752,30.541-20.752,50.097v70.874c43.249,0,84.252,0,106.31,0
		c88.062,0,159.447-71.387,159.447-159.436C637.788,337.918,593.159,278.922,531.026,257.133z"/>
</g>
</svg>
