<?xml version="1.0" encoding="utf-8"?>
<!-- Generator: Adobe Illustrator 16.0.0, SVG Export Plug-In . SVG Version: 6.00 Build 0)  -->
<!DOCTYPE svg PUBLIC "-//W3C//DTD SVG 1.0//EN" "http://www.w3.org/TR/2001/REC-SVG-20010904/DTD/svg10.dtd">
<svg version="1.0" id="Layer_1" xmlns="http://www.w3.org/2000/svg" xmlns:xlink="http://www.w3.org/1999/xlink" x="0px" y="0px"
	 width="708.66px" height="708.66px" viewBox="0 0 708.66 708.66" enable-background="new 0 0 708.66 708.66" xml:space="preserve">
<g>
	<path fill="none" stroke="#373431" stroke-width="12" stroke-linecap="round" stroke-linejoin="round" stroke-miterlimit="10" d="
		M341.024,279.165l6.641-84.28h13.306l6.616,137.406l66.433-59.792v19.947l-50.88,50.88c-9.62,9.607-15.553,22.913-15.553,37.574
		v57.691l93.021-86.354v19.934l-77.468,77.456c-9.62,9.595-15.553,22.889-15.553,37.562v79.738h-26.563V460.626
		c0-14.686-5.933-27.967-15.552-37.586l-77.468-77.456v-19.91l93.02,86.367v-84.279c0-14.685-5.933-27.979-15.552-37.599
		l-50.88-50.892v-19.898L341.024,279.165z"/>
	<path fill="none" stroke="#373431" stroke-width="12" stroke-linecap="round" stroke-linejoin="round" stroke-miterlimit="10" d="
		M354.306,141.709c-102.737,0-186.016,83.303-186.016,186.052c0,98.269,76.223,178.508,172.734,185.356v-52.492
		c0-14.686-5.933-27.967-15.552-37.586l-77.468-77.456v-19.91l93.02,86.367v-84.279c0-14.685-5.933-27.979-15.552-37.599
		l-50.88-50.892v-19.898l66.432,59.792l6.641-84.28h13.306l6.616,137.406l66.433-59.792v19.947l-50.88,50.88
		c-9.62,9.607-15.553,22.913-15.553,37.574v57.691l93.021-86.354v19.934l-77.468,77.456c-9.62,9.595-15.553,22.889-15.553,37.562
		v25.929c96.512-6.849,172.734-87.088,172.734-185.356C540.322,225.012,457.044,141.709,354.306,141.709z"/>
	<path fill="none" stroke="#373431" stroke-width="12" stroke-linecap="round" stroke-linejoin="round" stroke-miterlimit="10" d="
		M493.813,459.991v-9.473c-6.982,7.922-14.527,15.296-22.73,21.924c0.269,1.941,0.61,3.87,0.61,5.896v88.589h22.12v-66.457
		c0-12.22,4.956-23.291,12.964-31.3l64.553-64.54v-16.614L493.813,459.991z"/>
	<path fill="none" stroke="#373431" stroke-width="12" stroke-linecap="round" stroke-linejoin="round" stroke-miterlimit="10" d="
		M501.088,213.782c24.512,31.495,39.234,70.974,39.234,113.98c0,47.096-17.652,89.992-46.51,122.757v9.473l77.517-71.975v16.614
		l-64.553,64.54c-8.008,8.009-12.964,19.08-12.964,31.3v21.607c80.422-5.701,143.949-72.561,143.949-154.46
		C637.762,288.222,578.043,222.864,501.088,213.782z"/>
	<path fill="none" stroke="#373431" stroke-width="12" stroke-linecap="round" stroke-linejoin="round" stroke-miterlimit="10" d="
		M411.168,504.841c18.36,9.559,38.771,15.687,60.524,17.237v-43.739c0-2.026-0.342-3.955-0.61-5.896
		C453.479,486.677,433.215,497.761,411.168,504.841z"/>
	<path fill="none" stroke="#373431" stroke-width="12" stroke-linecap="round" stroke-linejoin="round" stroke-miterlimit="10" d="
		M214.8,459.991v-9.473c6.982,7.922,14.527,15.296,22.73,21.924c-0.269,1.941-0.61,3.87-0.61,5.896v88.589H214.8v-66.457
		c0-12.22-4.956-23.291-12.964-31.3l-64.553-64.54v-16.614L214.8,459.991z"/>
	<path fill="none" stroke="#373431" stroke-width="12" stroke-linecap="round" stroke-linejoin="round" stroke-miterlimit="10" d="
		M207.525,213.782c-24.513,31.495-39.234,70.974-39.234,113.98c0,47.096,17.651,89.992,46.51,122.757v9.473l-77.517-71.975v16.614
		l64.553,64.54c8.008,8.009,12.964,19.08,12.964,31.3v21.607c-80.422-5.701-143.949-72.561-143.949-154.46
		C70.851,288.222,130.57,222.864,207.525,213.782z"/>
	<path fill="none" stroke="#373431" stroke-width="12" stroke-linecap="round" stroke-linejoin="round" stroke-miterlimit="10" d="
		M297.444,504.841c-18.359,9.559-38.771,15.687-60.523,17.237v-43.739c0-2.026,0.342-3.955,0.61-5.896
		C255.133,486.677,275.398,497.761,297.444,504.841z"/>
</g>
</svg>
