<?xml version="1.0" encoding="utf-8"?>
<!-- Generator: Adobe Illustrator 16.0.0, SVG Export Plug-In . SVG Version: 6.00 Build 0)  -->
<!DOCTYPE svg PUBLIC "-//W3C//DTD SVG 1.0//EN" "http://www.w3.org/TR/2001/REC-SVG-20010904/DTD/svg10.dtd">
<svg version="1.0" id="Layer_1" xmlns="http://www.w3.org/2000/svg" xmlns:xlink="http://www.w3.org/1999/xlink" x="0px" y="0px"
	 width="708.66px" height="708.66px" viewBox="0 0 708.66 708.66" enable-background="new 0 0 708.66 708.66" xml:space="preserve">
<g>
	<path fill="none" stroke="#373431" stroke-width="12" stroke-linecap="round" stroke-linejoin="round" stroke-miterlimit="10" d="
		M500.365,203.843c-37.364-36.034-88.986-58.324-146.016-58.324h-0.024c-57.018,0-108.627,22.29-146.029,58.324
		c-19.226,18.554-31.127,44.164-31.127,72.483c0,13.916,2.905,27.136,8.093,39.22c112.717-45.03,233.648-41.747,338.162-0.024
		l0.013,0.024c5.151-12.084,8.056-25.305,8.056-39.22C531.492,248.007,519.604,222.397,500.365,203.843z"/>
	<path fill="none" stroke="#373431" stroke-width="12" stroke-linecap="round" stroke-linejoin="round" stroke-miterlimit="10" d="
		M354.325,145.52h0.024c1.391,0,2.734,0.183,4.114,0.208c5.651-14.441,14.293-27.453,25.377-38.17l-29.503-18.969
		c-16.344,15.747-27.488,36.4-31.176,59.447C333.354,146.545,343.706,145.52,354.325,145.52z"/>
	<path fill="none" stroke="#373431" stroke-width="12" stroke-linecap="round" stroke-linejoin="round" stroke-miterlimit="10" d="
		M206.697,307.601v99.46c0,31.262,6.531,61.046,18.225,88.194c12.097,28.185,29.772,53.611,51.806,74.852
		c22.045,21.215,48.375,38.292,77.609,49.962h0.013c29.235-11.67,55.54-28.747,77.61-49.962
		c22.009-21.24,39.709-46.667,51.781-74.852c11.73-27.148,18.249-56.933,18.249-88.194v-99.436
		C409.315,275.912,305.499,273.727,206.697,307.601z"/>
	
		<polygon fill="none" stroke="#373431" stroke-width="12" stroke-linecap="round" stroke-linejoin="round" stroke-miterlimit="10" points="
		493.298,197.642 460.621,230.308 425.197,194.884 389.76,230.308 354.336,194.884 318.901,230.308 318.889,230.308 
		283.465,194.884 248.029,230.308 215.363,197.654 248.029,230.308 283.465,194.884 318.889,230.308 318.901,230.308 
		354.336,194.884 389.76,230.308 425.197,194.884 460.621,230.308 	"/>
	
		<polygon fill="none" stroke="#373431" stroke-width="12" stroke-linecap="round" stroke-linejoin="round" stroke-miterlimit="10" points="
		419.862,155.92 389.76,186.021 354.336,150.598 318.901,186.021 318.889,186.021 288.811,155.932 318.889,186.021 318.901,186.021 
		354.336,150.598 389.76,186.021 	"/>
	
		<polygon fill="none" stroke="#373431" stroke-width="12" stroke-linecap="round" stroke-linejoin="round" stroke-miterlimit="10" points="
		531.395,274.521 496.057,239.169 460.621,274.605 425.197,239.169 389.76,274.605 354.336,239.169 318.901,274.605 
		318.889,274.605 283.465,239.169 248.029,274.605 212.605,239.169 177.266,274.496 212.605,239.169 248.029,274.605 
		283.465,239.169 318.889,274.605 318.901,274.605 354.336,239.169 389.76,274.605 425.197,239.169 460.621,274.605 
		496.057,239.169 	"/>
	
		<polygon fill="none" stroke="#373431" stroke-width="12" stroke-linecap="round" stroke-linejoin="round" stroke-miterlimit="10" points="
		229.584,300.447 212.605,283.468 183.968,312.092 212.605,283.468 	"/>
	
		<polygon fill="none" stroke="#373431" stroke-width="12" stroke-linecap="round" stroke-linejoin="round" stroke-miterlimit="10" points="
		479.028,300.496 496.057,283.468 524.706,312.117 496.057,283.468 	"/>
</g>
</svg>
