<?xml version="1.0" encoding="utf-8"?>
<!-- Generator: Adobe Illustrator 22.1.0, SVG Export Plug-In . SVG Version: 6.00 Build 0)  -->
<svg version="1.1" id="Layer_1" xmlns="http://www.w3.org/2000/svg" xmlns:xlink="http://www.w3.org/1999/xlink" x="0px" y="0px"
	 viewBox="0 0 708.7 708.7" style="enable-background:new 0 0 708.7 708.7;" xml:space="preserve">
<style type="text/css">
	.st0{fill:none;stroke:#FFFFFF;stroke-width:12;stroke-linecap:round;stroke-linejoin:round;stroke-miterlimit:10;}
</style>
<g>
	<path class="st0" d="M311.1,201.3c30.3,30.3,30.3,79.5,0,109.8c-10,10-22.1,16.6-34.8,20c6.9-25.9,0.2-54.6-20-74.9
		c-30.3-30.3-30.3-79.5,0-109.8l22.7-22.7C279,151.8,289.7,179.9,311.1,201.3L311.1,201.3L311.1,201.3z"/>
	<path class="st0" d="M201.3,311.1c-21.4-21.4-49.5-32.1-77.6-32.2l22.7-22.7c30.3-30.3,79.5-30.3,109.8,0l0,0
		c20.3,20.3,26.9,49,20,74.9C250.4,338,221.6,331.4,201.3,311.1L201.3,311.1z"/>
	<path class="st0" d="M158.7,246.3C139.6,210,130.1,170,130.1,130l0,0c40,0,79.9,9.5,116.2,28.6c-19.9,30.1-16.6,71,10,97.6l0,0
		C229.7,229.7,188.8,226.4,158.7,246.3z"/>
	<path class="st0" d="M311.1,311.1L434,433.9L311.1,311.1z"/>
	<path class="st0" d="M213.9,362.8c42.9,0,77.6,34.7,77.6,77.6c0,14.1-3.8,27.4-10.5,38.8c-13.4-23.2-38.4-38.8-67.1-38.8
		c-42.8,0-77.6-34.7-77.6-77.6v-32.1C156.2,350.6,183.6,362.8,213.9,362.8L213.9,362.8L213.9,362.8z"/>
	<path class="st0" d="M213.9,518.1c-30.3,0-57.7,12.3-77.6,32.1l0-32.1c0-42.9,34.7-77.6,77.6-77.6l0,0c28.7,0,53.7,15.6,67.1,38.8
		C267.6,502.5,242.6,518.1,213.9,518.1L213.9,518.1z"/>
	<path class="st0" d="M137.9,502.4c-39.2-12.2-74.2-33.7-102.4-62v0c28.3-28.3,63.3-49.8,102.4-62c7.3,35.4,38.6,62,76,62l0,0
		C176.4,440.5,145.1,467.1,137.9,502.4z"/>
	<path class="st0" d="M362.9,213.9c0,42.9,34.8,77.6,77.6,77.6c14.2,0,27.4-3.8,38.8-10.5c-23.2-13.4-38.8-38.4-38.8-67.1
		c0-42.8-34.7-77.6-77.6-77.6h-32.1C350.6,156.2,362.9,183.6,362.9,213.9L362.9,213.9z"/>
	<path class="st0" d="M518.1,213.9c0-30.3,12.3-57.7,32.1-77.6h-32.1c-42.8,0-77.6,34.8-77.6,77.6l0,0c0,28.7,15.6,53.7,38.8,67.1
		C502.5,267.6,518.1,242.6,518.1,213.9L518.1,213.9z"/>
	<path class="st0" d="M502.4,137.9c-12.2-39.1-33.7-74.2-62-102.4l0,0c-28.2,28.3-49.8,63.3-62,102.4c35.4,7.3,62,38.6,61.9,76l0,0
		C440.5,176.4,467.1,145.1,502.4,137.9z"/>
	<path class="st0" d="M621.5,673.2L324,505.1c-10.7-10.7,21.1-59.9,71.1-109.9c50-50,99.2-81.8,109.9-71.1l168.1,297.5L621.5,673.2z
		"/>
	<path class="st0" d="M440.5,291.5v73.2c0,18.8,2.9,37,8.2,54.1c-4.7,5-9.5,10.1-14.6,15.2c-5.1,5.1-10.2,9.9-15.2,14.6
		c-17.1-5.3-35.3-8.1-54.1-8.1h-73.2h73.2c18.8,0,37,2.9,54.1,8.1c5.1-4.7,10.1-9.5,15.2-14.6c5.1-5.1,9.9-10.2,14.6-15.2
		c-5.3-17.1-8.2-35.3-8.2-54.1V291.5z"/>
	<path class="st0" d="M505.1,324C515.8,334.7,484,384,434,434c-50,50-99.2,81.8-109.9,71.1c-10.7-10.7,21.1-59.9,71.1-109.9
		C445.2,345.2,494.4,313.3,505.1,324z"/>
	<path class="st0" d="M595.6,658.6V484.2V658.6z"/>
	<path class="st0" d="M392.7,543.9h203H392.7z"/>
</g>
</svg>
