<?xml version="1.0" encoding="utf-8"?>
<!-- Generator: Adobe Illustrator 16.0.0, SVG Export Plug-In . SVG Version: 6.00 Build 0)  -->
<!DOCTYPE svg PUBLIC "-//W3C//DTD SVG 1.0//EN" "http://www.w3.org/TR/2001/REC-SVG-20010904/DTD/svg10.dtd">
<svg version="1.0" id="Layer_1" xmlns="http://www.w3.org/2000/svg" xmlns:xlink="http://www.w3.org/1999/xlink" x="0px" y="0px"
	 width="708.66px" height="708.66px" viewBox="0 0 708.66 708.66" enable-background="new 0 0 708.66 708.66" xml:space="preserve">
<g>
	<path fill="none" stroke="#373431" stroke-width="12" stroke-linecap="round" stroke-linejoin="round" stroke-miterlimit="10" d="
		M336.612,271.816l8.862-112.379h17.712l8.862,183.229l88.588-79.737v26.6l-67.835,67.835
		c-12.83,12.806-20.753,30.542-20.753,50.086v76.941l124.013-115.174v26.599l-103.26,103.285
		c-12.83,12.817-20.753,30.53-20.753,50.086v106.336h-35.437V513.762c0-19.543-7.922-37.269-20.752-50.098L212.6,360.403v-26.563
		l124.012,115.15V336.6c0-19.568-7.922-37.28-20.752-50.098l-67.835-67.86v-26.526L336.612,271.816z"/>
	<path fill="none" stroke="#373431" stroke-width="12" stroke-linecap="round" stroke-linejoin="round" stroke-miterlimit="10" d="
		M354.349,53.138h-0.012c-117.409,0-212.6,95.191-212.6,212.6l-0.012,124.013c0,111.451,85.792,203.578,194.887,212.611v-88.6
		c0-19.58-7.922-37.269-20.752-50.122L212.6,360.367v-26.526l124.012,115.15V336.6c0-19.58-7.922-37.28-20.752-50.135
		l-67.835-67.823v-26.563l88.587,79.737l8.862-112.391h17.712l8.862,183.229l88.588-79.725v26.6l-67.835,67.811
		c-12.83,12.83-20.753,30.53-20.753,50.11v76.941l124.013-115.174v26.599l-103.26,103.285
		c-12.83,12.817-20.753,30.518-20.753,50.086v53.174c109.107-9.033,194.888-101.16,194.888-212.611l0.012-124.013
		C566.948,148.329,471.757,53.138,354.349,53.138z"/>
	<path fill="none" stroke="#373431" stroke-width="12" stroke-linecap="round" stroke-linejoin="round" stroke-miterlimit="10" d="
		M412.235,212.282l12.964-12.964l12.977,12.964c7.165,7.178,7.165,18.762,0,25.94c-7.166,7.153-18.775,7.153-25.94,0
		C405.069,231.044,405.069,219.46,412.235,212.282z"/>
	<path fill="none" stroke="#373431" stroke-width="12" stroke-linecap="round" stroke-linejoin="round" stroke-miterlimit="10" d="
		M385.648,105.982l12.964-12.964l12.976,12.964c7.166,7.178,7.166,18.762,0,25.94c-7.165,7.153-18.774,7.153-25.939,0
		C378.482,124.745,378.482,113.16,385.648,105.982z"/>
	<path fill="none" stroke="#373431" stroke-width="12" stroke-linecap="round" stroke-linejoin="round" stroke-miterlimit="10" d="
		M474.235,167.982l12.964-12.988l12.977,12.988c7.165,7.166,7.165,18.787,0,25.965c-7.166,7.141-18.775,7.141-25.94,0
		C467.069,186.77,467.069,175.148,474.235,167.982z"/>
	<path fill="none" stroke="#373431" stroke-width="12" stroke-linecap="round" stroke-linejoin="round" stroke-miterlimit="10" d="
		M270.498,318.582l12.964-12.964l12.976,12.964c7.166,7.166,7.166,18.762,0,25.952c-7.166,7.142-18.774,7.142-25.94,0
		C263.332,337.344,263.332,325.748,270.498,318.582z"/>
	<path fill="none" stroke="#373431" stroke-width="12" stroke-linecap="round" stroke-linejoin="round" stroke-miterlimit="10" d="
		M190.773,416.032l12.964-13.001l12.976,13.001c7.166,7.141,7.166,18.75,0,25.928c-7.165,7.153-18.774,7.153-25.94,0
		C183.607,434.782,183.607,423.173,190.773,416.032z"/>
	<path fill="none" stroke="#373431" stroke-width="12" stroke-linecap="round" stroke-linejoin="round" stroke-miterlimit="10" d="
		M252.773,495.744l12.964-12.988l12.976,12.988c7.166,7.178,7.166,18.787,0,25.965c-7.166,7.142-18.775,7.142-25.94,0
		C245.607,514.531,245.607,502.922,252.773,495.744z"/>
	<path fill="none" stroke="#373431" stroke-width="12" stroke-linecap="round" stroke-linejoin="round" stroke-miterlimit="10" d="
		M456.522,486.919l12.964-13.001l12.977,13.001c7.166,7.141,7.166,18.75,0,25.915c-7.166,7.166-18.774,7.166-25.94,0
		C449.357,505.669,449.357,494.06,456.522,486.919z"/>
	<path fill="none" stroke="#373431" stroke-width="12" stroke-linecap="round" stroke-linejoin="round" stroke-miterlimit="10" d="
		M190.773,247.72l12.964-12.988l12.976,12.988c7.166,7.165,7.166,18.787,0,25.928c-7.165,7.178-18.774,7.178-25.94,0
		C183.607,266.506,183.607,254.885,190.773,247.72z"/>
	<path fill="none" stroke="#373431" stroke-width="12" stroke-linecap="round" stroke-linejoin="round" stroke-miterlimit="10" d="
		M279.348,132.558l12.964-12.977l12.976,12.977c7.166,7.165,7.166,18.786,0,25.928c-7.166,7.19-18.774,7.19-25.94,0
		C272.183,151.344,272.183,139.723,279.348,132.558z"/>
	<path fill="none" stroke="#373431" stroke-width="12" stroke-linecap="round" stroke-linejoin="round" stroke-miterlimit="10" d="
		M500.811,300.882l12.964-13.001l12.976,13.001c7.166,7.141,7.166,18.762,0,25.928c-7.165,7.166-18.774,7.166-25.939,0
		C493.645,319.644,493.645,308.022,500.811,300.882z"/>
</g>
</svg>
