<?xml version="1.0" encoding="utf-8"?>
<!-- Generator: Adobe Illustrator 16.0.0, SVG Export Plug-In . SVG Version: 6.00 Build 0)  -->
<!DOCTYPE svg PUBLIC "-//W3C//DTD SVG 1.0//EN" "http://www.w3.org/TR/2001/REC-SVG-20010904/DTD/svg10.dtd">
<svg version="1.0" id="Layer_1" xmlns="http://www.w3.org/2000/svg" xmlns:xlink="http://www.w3.org/1999/xlink" x="0px" y="0px"
	 width="708.66px" height="708.66px" viewBox="0 0 708.66 708.66" enable-background="new 0 0 708.66 708.66" xml:space="preserve">
<g>
	<path fill="none" stroke="#373431" stroke-width="12" stroke-linecap="round" stroke-linejoin="round" stroke-miterlimit="10" d="
		M345.468,212.602h17.712l8.862,112.353l65.502-65.49v35.437l-44.751,44.775c-12.829,12.817-20.751,30.517-20.751,50.073v76.928
		l98.863-98.863v35.449l-78.112,78.1c-12.829,12.842-20.751,30.554-20.751,50.109v106.322h-35.424V496.047
		c0-19.556-7.91-37.268-20.752-50.109L243.528,373.6v-35.388l93.09,93.078L345.468,212.602z"/>
	<path fill="none" stroke="#373431" stroke-width="12" stroke-linecap="round" stroke-linejoin="round" stroke-miterlimit="10" d="
		M580.586,464.724l-86.157-291.636c-16.602-56.213-79.649-102.208-140.098-102.208l0,0c-60.449,0-123.498,45.996-140.099,102.208
		l-86.157,291.636c-16.601,56.213,19.275,102.197,79.724,102.197h128.82v-70.874c0-19.556-7.91-37.268-20.752-50.109L243.528,373.6
		v-35.388l93.09,93.078l8.85-218.687h17.712l8.862,112.353l65.502-65.49v35.437l-44.751,44.775
		c-12.829,12.817-20.751,30.517-20.751,50.073v76.928l98.863-98.863v35.449l-78.112,78.1
		c-12.829,12.842-20.751,30.554-20.751,50.109v35.449h128.831C561.323,566.921,597.187,520.937,580.586,464.724z"/>
</g>
</svg>
