<?xml version="1.0" encoding="utf-8"?>
<!-- Generator: Adobe Illustrator 16.0.0, SVG Export Plug-In . SVG Version: 6.00 Build 0)  -->
<!DOCTYPE svg PUBLIC "-//W3C//DTD SVG 1.0//EN" "http://www.w3.org/TR/2001/REC-SVG-20010904/DTD/svg10.dtd">
<svg version="1.0" id="Layer_1" xmlns="http://www.w3.org/2000/svg" xmlns:xlink="http://www.w3.org/1999/xlink" x="0px" y="0px"
	 width="708.66px" height="708.66px" viewBox="0 0 708.66 708.66" enable-background="new 0 0 708.66 708.66" xml:space="preserve">
<g>
	<path fill="none" stroke="#373431" stroke-width="12" stroke-linecap="round" stroke-linejoin="round" stroke-miterlimit="10" d="
		M283.128,71.02l-0.244-0.146c-9.888,50.879-39.453,92.944-79.271,119.848c49.291,20.386,106.298,21.973,159.447-0.049l0,0
		C319.896,161.839,292.527,118.236,283.128,71.02z"/>
	<path fill="none" stroke="#373431" stroke-width="12" stroke-linecap="round" stroke-linejoin="round" stroke-miterlimit="10" d="
		M203.466,190.843c0.049-0.049,0.098-0.073,0.146-0.122c-0.049,0-0.098-0.024-0.146-0.049V190.843z"/>
	<path fill="none" stroke="#373431" stroke-width="12" stroke-linecap="round" stroke-linejoin="round" stroke-miterlimit="10" d="
		M447.97,363.718l6.324-80.273h12.646l6.348,130.883l63.28-56.958v18.994l-48.462,48.461c-9.154,9.155-14.818,21.802-14.818,35.791
		v54.931l88.573-82.25v18.994l-73.755,73.754c-9.154,9.156-14.818,21.826-14.818,35.791v75.952H447.97V536.543
		c0-13.965-5.663-26.635-14.818-35.79l-73.754-73.779v-18.944l88.572,82.25v-80.297c0-13.965-5.663-26.611-14.818-35.791
		l-48.462-48.438v-18.97L447.97,363.718z"/>
	<path fill="none" stroke="#373431" stroke-width="12" stroke-linecap="round" stroke-linejoin="round" stroke-miterlimit="10" d="
		M460.642,232.835c-97.852,0-177.172,79.32-177.172,177.147c0,93.603,72.582,170.018,164.5,176.536v-49.976
		c0-13.965-5.663-26.635-14.818-35.79l-73.754-73.779v-18.944l88.572,82.25v-80.297c0-13.965-5.663-26.611-14.818-35.791
		l-48.462-48.438v-18.97l63.28,56.934l6.324-80.273h12.646l6.348,130.883l63.28-56.958v18.994l-48.462,48.461
		c-9.154,9.155-14.818,21.802-14.818,35.791v54.931l88.573-82.25v18.994l-73.755,73.754c-9.154,9.156-14.818,21.826-14.818,35.791
		v24.683c91.918-6.519,164.5-82.934,164.5-176.536C637.788,312.155,558.468,232.835,460.642,232.835z"/>
	<path fill="none" stroke="#373431" stroke-width="12" stroke-linecap="round" stroke-linejoin="round" stroke-miterlimit="10" d="
		M359.251,264.842c-58.765,14.794-118.871,11.889-173.827-6.25c-18.628,19.482-39.209,36.962-61.45,52.001
		c54.296,22.437,113.255,33.423,173.045,31.445C310.032,310.739,331.81,284.031,359.251,264.842z"/>
	<path fill="none" stroke="#373431" stroke-width="12" stroke-linecap="round" stroke-linejoin="round" stroke-miterlimit="10" d="
		M395.651,245.286c-19.604-14.014-36.986-30.029-51.855-47.729c-40.673,12.402-82.714,11.694-121.238-0.049
		c-17.066,20.459-36.841,38.354-58.765,53.149c60.448,25,128.637,31.103,195.067,14.453
		C370.237,257.127,382.565,250.462,395.651,245.286z"/>
	<path fill="none" stroke="#373431" stroke-width="12" stroke-linecap="round" stroke-linejoin="round" stroke-miterlimit="10" d="
		M283.47,409.982c0-24.097,4.858-47.046,13.574-67.993c-49.365,1.611-98.168-5.615-144.237-20.825
		c-24.853,26.001-52.27,49.292-81.933,69.336c67.382,27.855,140.184,42.431,214.207,42.211
		C284.129,425.265,283.47,417.697,283.47,409.982z"/>
	<path fill="none" stroke="#373431" stroke-width="12" stroke-linecap="round" stroke-linejoin="round" stroke-miterlimit="10" d="
		M285.081,432.711c-9.424,0.024-18.823-0.171-28.174-0.61v41.797h38.623C290.477,460.836,286.912,447.042,285.081,432.711z"/>
</g>
</svg>
