<?xml version="1.0" encoding="utf-8"?>
<!-- Generator: Adobe Illustrator 16.0.0, SVG Export Plug-In . SVG Version: 6.00 Build 0)  -->
<!DOCTYPE svg PUBLIC "-//W3C//DTD SVG 1.0//EN" "http://www.w3.org/TR/2001/REC-SVG-20010904/DTD/svg10.dtd">
<svg version="1.0" id="Layer_1" xmlns="http://www.w3.org/2000/svg" xmlns:xlink="http://www.w3.org/1999/xlink" x="0px" y="0px"
	 width="708.66px" height="708.66px" viewBox="0 0 708.66 708.66" enable-background="new 0 0 708.66 708.66" xml:space="preserve">
<g>
	<path fill="none" stroke="#373431" stroke-width="12" stroke-linecap="round" stroke-linejoin="round" stroke-miterlimit="10" d="
		M336.619,254.118l8.85-112.377h17.712l8.862,183.214l178.782-169.933v26.599L392.794,339.676
		c-12.829,12.817-20.751,30.517-20.751,50.073v76.928l124.01-115.147v26.587L392.794,481.387
		c-12.829,12.817-20.751,30.529-20.751,50.085v106.322h-35.424V496.047c0-19.556-7.935-37.268-20.752-50.109L166.441,296.524
		v-26.562l170.177,161.327V318.9c0-19.568-7.935-37.292-20.752-50.097l-67.846-67.858v-26.525L336.619,254.118z"/>
	<path fill="none" stroke="#373431" stroke-width="12" stroke-linecap="round" stroke-linejoin="round" stroke-miterlimit="10" d="
		M637.787,212.602c0-68.481-55.541-123.998-124.034-123.998c-35.474,0-67.383,14.99-89.989,38.854
		c-6.604-32.288-35.181-56.579-69.433-56.579c-26.416,0-49.401,14.478-61.596,35.901c-3.064-0.269-6.152-0.477-9.29-0.477
		c-53.076,0-96.935,38.953-104.882,89.794C117.797,204.106,70.874,255.949,70.874,318.9c0,50.952,30.761,94.689,74.706,113.756
		c-2.441,8.936-3.845,18.274-3.845,27.979c0,58.69,47.595,106.286,106.286,106.286c18.616,0,52.417,0,88.598,0v-70.874
		c0-19.556-7.935-37.268-20.752-50.109L166.441,296.524v-26.562l170.177,161.327V318.9c0-19.568-7.935-37.292-20.752-50.097
		l-67.846-67.858v-26.525l88.598,79.699l8.85-112.377h17.712l8.862,183.214l178.782-169.933v26.599L392.794,339.676
		c-12.829,12.817-20.751,30.517-20.751,50.073v76.928l124.01-115.147v26.587L392.794,481.387
		c-12.829,12.817-20.751,30.529-20.751,50.085v35.449c34.936,0,68.261,0,88.573,0c78.271,0,141.747-63.439,141.747-141.711
		c0-38.305-15.283-73.01-39.99-98.498C606.696,307.804,637.787,263.847,637.787,212.602z"/>
</g>
</svg>
