<?xml version="1.0" encoding="utf-8"?>
<!-- Generator: Adobe Illustrator 22.1.0, SVG Export Plug-In . SVG Version: 6.00 Build 0)  -->
<svg version="1.1" id="Layer_1" xmlns="http://www.w3.org/2000/svg" xmlns:xlink="http://www.w3.org/1999/xlink" x="0px" y="0px"
	 viewBox="0 0 708.7 708.7" style="enable-background:new 0 0 708.7 708.7;" xml:space="preserve">
<style type="text/css">
	.st0{fill:none;stroke:#FFFFFF;stroke-width:12;stroke-linecap:round;stroke-linejoin:round;stroke-miterlimit:10;}
</style>
<g>
	<path class="st0" d="M354.3,53.2v602.4V53.2z"/>
	<path class="st0" d="M367.7,463.7l42.7-11L367.7,463.7z"/>
	<path class="st0" d="M384,433.1l44-2.4L384,433.1z"/>
	<path class="st0" d="M357.7,496.9l39.7-19.1L357.7,496.9z"/>
	<path class="st0" d="M367.7,322l42.7-11L367.7,322z"/>
	<path class="st0" d="M384,291.3l44-2.4L384,291.3z"/>
	<path class="st0" d="M357.7,355.2l39.7-19.1L357.7,355.2z"/>
	<path class="st0" d="M530.7,212.6c-97.4,0-176.4,79.3-176.4,177.2l0,0c0-97.9-79-177.2-176.4-177.2c97.4,0,176.4,79.3,176.4,177.2
		l0,0C354.3,291.9,433.3,212.6,530.7,212.6z"/>
	<path class="st0" d="M340.9,322l-42.7-11L340.9,322z"/>
	<path class="st0" d="M324.6,291.3l-44-2.4L324.6,291.3z"/>
	<path class="st0" d="M350.9,355.2l-39.7-19.1L350.9,355.2z"/>
	<path class="st0" d="M340.9,463.7l-42.7-11L340.9,463.7z"/>
	<path class="st0" d="M324.6,433.1l-44-2.4L324.6,433.1z"/>
	<path class="st0" d="M350.9,496.9l-39.7-19.1L350.9,496.9z"/>
	<polygon class="st0" points="557.2,389.8 530.7,354.4 557.2,318.9 530.7,354.4 	"/>
	<polygon class="st0" points="319,504.9 354.4,531.5 389.6,504.9 354.4,531.5 	"/>
	<polygon class="st0" points="327.9,547 354.4,566.9 380.8,547 354.4,566.9 	"/>
	<polygon class="st0" points="336.7,589.1 354.3,602.4 372,589.1 354.3,602.4 	"/>
	<polygon class="st0" points="389.6,106.3 354.4,132.9 319,106.3 354.4,132.9 	"/>
	<polygon class="st0" points="372,84.2 354.3,97.4 336.7,84.2 354.3,97.4 	"/>
	<polygon class="st0" points="389.6,141.8 354.4,168.3 319,141.7 354.4,168.3 	"/>
	<polygon class="st0" points="389.6,177.2 354.4,203.7 319,177.2 354.4,203.7 	"/>
	<polygon class="st0" points="372,225.9 354.4,239.2 336.7,225.9 354.4,239.2 	"/>
	<polygon class="st0" points="380.8,254.7 354.4,274.6 327.9,254.7 354.4,274.6 	"/>
	<polygon class="st0" points="376.4,373.2 354.4,389.8 332.3,373.2 354.4,389.8 	"/>
	<polygon class="st0" points="376.4,408.6 354.4,425.2 332.3,408.6 354.4,425.2 	"/>
	<polygon class="st0" points="449.6,412.5 406,406.2 399.7,362.4 406,406.2 	"/>
	<polygon class="st0" points="501.1,390.4 463.2,367.8 474.2,324.9 463.2,367.8 	"/>
	<polygon class="st0" points="609.2,410.7 598.2,367.8 636.2,345.3 598.2,367.8 	"/>
	<polygon class="st0" points="529.1,387.3 496.3,357.8 515.4,317.8 496.3,357.8 	"/>
	<polygon class="st0" points="474.3,398.9 432.7,384.2 435.1,340 432.7,384.2 	"/>
	<polygon class="st0" points="584.2,397.7 565.2,357.7 598,328.2 565.2,357.7 	"/>
	<polygon class="st0" points="151.5,389.8 177.9,354.4 151.4,318.9 177.9,354.4 	"/>
	<polygon class="st0" points="259,412.5 302.6,406.2 308.9,362.4 302.6,406.2 	"/>
	<polygon class="st0" points="207.5,390.4 245.4,367.8 234.5,324.9 245.4,367.8 	"/>
	<polygon class="st0" points="99.5,410.7 110.4,367.8 72.4,345.3 110.4,367.8 	"/>
	<polygon class="st0" points="179.5,387.3 212.3,357.8 193.3,317.8 212.3,357.8 	"/>
	<polygon class="st0" points="234.3,398.9 275.9,384.2 273.5,340 275.9,384.2 	"/>
	<polygon class="st0" points="124.4,397.7 143.5,357.7 110.6,328.2 143.5,357.7 	"/>
	<polygon class="st0" points="449.6,270.8 406,264.5 399.7,220.6 406,264.5 	"/>
	<polygon class="st0" points="501.1,248.7 463.2,226.1 474.2,183.2 463.2,226.1 	"/>
	<polygon class="st0" points="474.3,257.2 432.7,242.5 435.1,198.2 432.7,242.5 	"/>
	<polygon class="st0" points="259,270.8 302.6,264.5 308.9,220.6 302.6,264.5 	"/>
	<polygon class="st0" points="207.5,248.7 245.4,226.1 234.5,183.2 245.4,226.1 	"/>
	<polygon class="st0" points="234.3,257.2 275.9,242.5 273.5,198.2 275.9,242.5 	"/>
	<path class="st0" d="M655.5,406.2c-31.9-32.1-76.1-51.9-124.8-51.9h0c-97.4,0-176.4,79.3-176.4,177.2l0,0
		c0-97.9-79-177.2-176.4-177.2c-48.7,0-92.8,19.8-124.7,51.9c31.9-32.1,76-51.9,124.7-51.9c97.5,0,176.4,79.3,176.4,177.2l0,0
		c0-97.9,79-177.2,176.4-177.2h0C579.5,354.3,623.6,374.1,655.5,406.2z"/>
</g>
</svg>
