<?xml version="1.0" encoding="utf-8"?>
<!-- Generator: Adobe Illustrator 16.0.0, SVG Export Plug-In . SVG Version: 6.00 Build 0)  -->
<!DOCTYPE svg PUBLIC "-//W3C//DTD SVG 1.0//EN" "http://www.w3.org/TR/2001/REC-SVG-20010904/DTD/svg10.dtd">
<svg version="1.0" id="Layer_1" xmlns="http://www.w3.org/2000/svg" xmlns:xlink="http://www.w3.org/1999/xlink" x="0px" y="0px"
	 width="708.66px" height="708.66px" viewBox="0 0 708.66 708.66" enable-background="new 0 0 708.66 708.66" xml:space="preserve">
<g>
	<path fill="none" stroke="#373431" stroke-width="12" stroke-linecap="round" stroke-linejoin="round" stroke-miterlimit="10" d="
		M429.513,243.711c0,41.528-33.667,75.183-75.182,75.183c-13.696,0-26.514-3.723-37.573-10.132
		c22.449-13,37.598-37.243,37.598-65.038c0-41.516,33.654-75.183,75.169-75.183h31.104c-19.226,19.263-31.127,45.837-31.127,75.183
		L429.513,243.711z"/>
	<path fill="none" stroke="#373431" stroke-width="12" stroke-linecap="round" stroke-linejoin="round" stroke-miterlimit="10" d="
		M279.16,243.724c0-29.346-11.901-55.92-31.127-75.183h31.104c41.516,0,75.182,33.667,75.182,75.183h0.037
		c0,27.795-15.148,52.038-37.598,65.038c-22.461-13-37.609-37.231-37.609-65.051L279.16,243.724z"/>
	<path fill="none" stroke="#373431" stroke-width="12" stroke-linecap="round" stroke-linejoin="round" stroke-miterlimit="10" d="
		M294.322,170.08c11.779-37.915,32.629-71.826,60.009-99.218h0.013c27.378,27.392,48.228,61.303,60.008,99.218
		c-34.24,7.031-59.997,37.329-59.997,73.645h-0.037C354.318,207.408,328.562,177.111,294.322,170.08z"/>
	<path fill="none" stroke="#373431" stroke-width="12" stroke-linecap="round" stroke-linejoin="round" stroke-miterlimit="10" d="
		M354.331,637.789V487.424c0-58.703,47.594-106.298,106.297-106.298c0,50.121-20.313,95.471-53.148,128.331
		C374.643,542.318,354.331,587.667,354.331,637.789z"/>
	<path fill="none" stroke="#373431" stroke-width="12" stroke-linecap="round" stroke-linejoin="round" stroke-miterlimit="10" d="
		M354.331,637.789V537.546c0-39.148-31.726-70.861-70.861-70.861c0,33.41,13.538,63.635,35.437,85.546
		C340.792,574.142,354.331,604.378,354.331,637.789z"/>
	<path fill="none" stroke="#373431" stroke-width="12" stroke-linecap="round" stroke-linejoin="round" stroke-miterlimit="10" d="
		M354.343,318.894v318.895V318.894z"/>
</g>
</svg>
